<?xml version="1.0" encoding="utf-8"?><!DOCTYPE svg PUBLIC "-//W3C//DTD SVG 1.1//EN" "http://www.w3.org/Graphics/SVG/1.1/DTD/svg11.dtd"><svg viewBox="0 0 310 310" xmlns="http://www.w3.org/2000/svg" xmlns:xlink="http://www.w3.org/1999/xlink"><style>:root>svg{display:none}:root>svg:target{display:block}</style><svg viewBox="0 0 10 5" id="arrow-down" xmlns="http://www.w3.org/2000/svg"><path fill-rule="evenodd" clip-rule="evenodd" d="M0 0h10L5 5 0 0z"/></svg><svg viewBox="0 0 24 24" id="arrow-right" xmlns="http://www.w3.org/2000/svg"><path fill-rule="evenodd" clip-rule="evenodd" d="M19.835 11.608a.55.55 0 010 .785l-4.513 4.444a.57.57 0 01-.797 0 .55.55 0 010-.785l3.549-3.497H5.564A.56.56 0 015 12a.56.56 0 01.564-.556h12.51l-3.55-3.495a.55.55 0 010-.786.567.567 0 01.798 0l4.513 4.445z"/></svg><svg viewBox="0 0 24 24" id="close" xmlns="http://www.w3.org/2000/svg"><path d="M19 6.41L17.59 5 12 10.59 6.41 5 5 6.41 10.59 12 5 17.59 6.41 19 12 13.41 17.59 19 19 17.59 13.41 12 19 6.41z"/></svg><svg viewBox="0 0 14 28" id="facebook" xmlns="http://www.w3.org/2000/svg"><path d="M9.083 28V15.229h4.128l.617-4.978H9.082V7.077c0-1.446.382-2.419 2.378-2.419H14V.192C13.556.128 12.053 0 10.303 0 6.643 0 4.14 2.316 4.14 6.578v3.673H0v4.978h4.14V28h4.943z"/></svg><svg viewBox="0 0 34 22" id="google" xmlns="http://www.w3.org/2000/svg"><path fill-rule="evenodd" clip-rule="evenodd" d="M21.048 9.56c.1.618.202 1.234.202 1.851 0 3.187-.91 5.757-2.934 7.608C16.392 20.972 13.963 22 10.826 22c-3.035 0-5.565-1.028-7.69-3.187S0 14.084 0 11c0-3.084 1.012-5.654 3.137-7.813S7.792 0 10.827 0c2.834 0 5.262.925 7.286 2.878L15.18 5.758c-1.114-1.13-2.631-1.645-4.352-1.645-1.821 0-3.44.72-4.756 2.056-1.315 1.44-2.023 3.084-2.023 4.935 0 1.953.708 3.598 2.023 4.934 1.316 1.337 2.935 2.056 4.756 2.056 1.518 0 2.834-.41 4.048-1.233 1.214-.925 1.923-2.056 2.125-3.495h-6.173V9.56h10.22zM34 12.749h-3.036v3.187h-3.137v-3.187H24.69V9.56h3.137V6.374h3.137V9.56H34v3.187z"/></svg><svg viewBox="0 0 50 50" id="linkedin" xmlns="http://www.w3.org/2000/svg"><path d="M41 4H9C6.24 4 4 6.24 4 9v32c0 2.76 2.24 5 5 5h32c2.76 0 5-2.24 5-5V9c0-2.76-2.24-5-5-5zM17 20v19h-6V20h6zm-6-5.53c0-1.4 1.2-2.47 3-2.47s2.93 1.07 3 2.47c0 1.4-1.12 2.53-3 2.53-1.8 0-3-1.13-3-2.53zM39 39h-6V29c0-2-1-4-3.5-4.04h-.08C27 24.96 26 27.02 26 29v10h-6V20h6v2.56S27.93 20 31.81 20c3.97 0 7.19 2.73 7.19 8.26V39z"/></svg><svg viewBox="0 0 94 94" id="reddit" xmlns="http://www.w3.org/2000/svg"><path d="M20.27 41.367a6.246 6.246 0 00-3.857-1.358c-3.451 0-6.26 2.81-6.26 6.264 0 2.002.971 3.847 2.535 5.009 1.302-3.725 3.945-7.11 7.582-9.915zM29.9 52.244c0-2.857 2.324-5.18 5.178-5.18s5.176 2.321 5.176 5.18c0 2.854-2.322 5.174-5.176 5.174s-5.178-2.32-5.178-5.174zm29.659 15.348c-2.604 2.609-6.701 3.876-12.516 3.876-.016 0-.027-.007-.043-.007-.016 0-.027.007-.043.007-5.816 0-9.91-1.267-12.52-3.876a1.222 1.222 0 01.002-1.723 1.223 1.223 0 011.723 0c2.127 2.13 5.658 3.166 10.795 3.166.016 0 .027.007.043.007.016 0 .027-.007.043-.007 5.135 0 8.666-1.036 10.797-3.166a1.223 1.223 0 011.723 0 1.222 1.222 0 01-.004 1.723zm-.616-10.174a5.18 5.18 0 01-5.176-5.174 5.183 5.183 0 015.176-5.18 5.182 5.182 0 015.174 5.18 5.18 5.18 0 01-5.174 5.174zM73.84 25.911a4.68 4.68 0 004.672-4.679 4.68 4.68 0 00-4.672-4.677 4.686 4.686 0 00-4.682 4.677 4.686 4.686 0 004.682 4.679zM77.584 40.009a6.225 6.225 0 00-4.014 1.478c3.617 2.828 6.227 6.234 7.488 9.979a6.21 6.21 0 002.789-5.193 6.268 6.268 0 00-6.263-6.264z"/><path d="M89 0H5a5 5 0 00-5 5v84a5 5 0 005 5h84a5 5 0 005-5V5a5 5 0 00-5-5zm-7.314 53.923c.148.866.242 1.741.242 2.634 0 12.859-15.742 23.321-35.092 23.321-19.348 0-35.088-10.462-35.088-23.321 0-.945.109-1.877.277-2.796a8.689 8.689 0 01-4.309-7.488c0-4.796 3.9-8.701 8.695-8.701 2.191 0 4.277.873 5.879 2.351 6.189-4.036 14.611-6.552 23.908-6.666l5.416-17.12a1.214 1.214 0 011.439-.817l14.17 3.335c1.037-2.646 3.604-4.531 6.615-4.531 3.92 0 7.109 3.19 7.109 7.11 0 3.924-3.189 7.114-7.109 7.114-3.926 0-7.117-3.19-7.117-7.114 0-.066.016-.124.021-.189l-13.148-3.096L48.74 33.3c8.889.317 16.92 2.818 22.85 6.746 1.611-1.558 3.719-2.475 5.994-2.475 4.797 0 8.699 3.905 8.699 8.701a8.624 8.624 0 01-4.597 7.651z"/></svg><svg viewBox="0 0 30 30" id="search" xmlns="http://www.w3.org/2000/svg"><path d="M13 3C7.489 3 3 7.489 3 13s4.489 10 10 10a9.947 9.947 0 006.322-2.264l5.971 5.971a1 1 0 101.414-1.414l-5.97-5.97A9.947 9.947 0 0023 13c0-5.511-4.489-10-10-10zm0 2c4.43 0 8 3.57 8 8s-3.57 8-8 8-8-3.57-8-8 3.57-8 8-8z"/></svg><svg viewBox="0 0 28 23" id="twitter" xmlns="http://www.w3.org/2000/svg"><path d="M28 2.721c-1.03.462-2.136.775-3.298.915A5.822 5.822 0 0027.227.425a11.503 11.503 0 01-3.65 1.41A5.698 5.698 0 0019.384 0c-3.172 0-5.744 2.601-5.744 5.807 0 .455.051.899.15 1.324-4.774-.243-9.006-2.555-11.84-6.07a5.814 5.814 0 00-.776 2.92 5.823 5.823 0 002.555 4.834 5.696 5.696 0 01-2.602-.729v.073c0 2.813 1.98 5.16 4.607 5.695-.482.131-.989.204-1.514.204-.37 0-.73-.038-1.081-.108.731 2.309 2.852 3.988 5.364 4.034a11.443 11.443 0 01-7.133 2.482c-.464 0-.92-.028-1.37-.08A16.105 16.105 0 008.804 23c10.567 0 16.342-8.85 16.342-16.526l-.019-.752a11.542 11.542 0 002.873-3z"/></svg><svg viewBox="0 0 310 310" id="youtube" xmlns="http://www.w3.org/2000/svg"><path d="M297.917 64.645c-11.19-13.302-31.85-18.728-71.306-18.728H83.386c-40.359 0-61.369 5.776-72.517 19.938C0 79.663 0 100.008 0 128.166v53.669c0 54.551 12.896 82.248 83.386 82.248h143.226c34.216 0 53.176-4.788 65.442-16.527C304.633 235.518 310 215.863 310 181.835v-53.669c0-29.695-.841-50.16-12.083-63.521zm-98.896 97.765l-65.038 33.991a9.997 9.997 0 01-14.632-8.863v-67.764a10 10 0 0114.609-8.874l65.038 33.772a10 10 0 01.023 17.738z"/></svg></svg>